<?xml version="1.0" encoding="UTF-8" standalone="no"?>
<!DOCTYPE svg PUBLIC "-//W3C//DTD SVG 1.1//EN" "http://www.w3.org/Graphics/SVG/1.1/DTD/svg11.dtd">
<svg width="100%" height="100%" viewBox="0 0 597 181" version="1.1" xmlns="http://www.w3.org/2000/svg" xmlns:xlink="http://www.w3.org/1999/xlink" xml:space="preserve" xmlns:serif="http://www.serif.com/" style="fill-rule:evenodd;clip-rule:evenodd;stroke-linejoin:round;stroke-miterlimit:2;">
    <g id="Strap_line">
        <path d="M26.4,153.5L21.7,171.5L19.3,171.5L15.6,158.9L12,171.5L9.6,171.5L4.9,153.5L7.8,153.5L10.9,166.4L14.5,153.5L16.7,153.5L20.3,166.4L23.4,153.5L26.4,153.5Z" style="fill:rgb(0,159,227);fill-rule:nonzero;"/>
        <path d="M42.3,171.5L39.4,171.5L38.2,167.9L31,167.9L29.8,171.5L26.9,171.5L33.5,153.5L35.7,153.5L42.3,171.5ZM37.4,165.5L34.7,157.5L31.9,165.5L37.4,165.5Z" style="fill:rgb(0,159,227);fill-rule:nonzero;"/>
        <path d="M55.9,155.9L51,155.9L51,171.4L48.3,171.4L48.3,155.9L43.3,155.9L43.3,153.4L55.9,153.4L55.9,155.9Z" style="fill:rgb(0,159,227);fill-rule:nonzero;"/>
        <path d="M70.5,171.5L59,171.5L59,153.5L70.5,153.5L70.5,156L61.7,156L61.7,161.2L69.2,161.2L69.2,163.6L61.7,163.6L61.7,169L70.5,169L70.5,171.5Z" style="fill:rgb(0,159,227);fill-rule:nonzero;"/>
        <path d="M87.3,171.5L84.1,171.5L80.3,163.9L77,163.9L77,171.5L74.2,171.5L74.2,153.5L81.2,153.5C82.3,153.5 83.3,153.7 84.1,154.2C85,154.6 85.6,155.3 86.1,156.1C86.6,156.9 86.8,157.8 86.8,158.8C86.8,160 86.5,161.1 85.8,161.9C85.1,162.7 84.3,163.3 83.2,163.6L87.3,171.5ZM84.1,158.8C84.1,157.9 83.8,157.2 83.3,156.7C82.8,156.2 82,155.9 81.1,155.9L77.1,155.9L77.1,161.5L81.1,161.5C82,161.5 82.8,161.2 83.3,160.7C83.8,160.2 84.1,159.6 84.1,158.8Z" style="fill:rgb(0,159,227);fill-rule:nonzero;"/>
        <rect x="96.8" y="153.5" width="2.8" height="18" style="fill:rgb(0,159,227);fill-rule:nonzero;"/>
        <path d="M117.8,171.5L115.3,171.5L107,158.8L107,171.5L104.2,171.5L104.2,153.5L106.7,153.5L115,166.1L115,153.5L117.7,153.5L117.7,171.5L117.8,171.5Z" style="fill:rgb(0,159,227);fill-rule:nonzero;"/>
        <path d="M135.3,161.3L135.3,163.2C135.3,164.2 135.3,165 135.2,165.7C135.1,166.4 135,167.1 134.7,167.8C134.4,168.5 134,169.1 133.5,169.7C132.4,170.8 130.8,171.4 128.8,171.4L122.5,171.4L122.5,153.4L128.8,153.4C130.8,153.4 132.3,154 133.5,155.1C134,155.6 134.4,156.2 134.7,156.9C135,157.6 135.1,158.2 135.2,158.9C135.3,159.6 135.3,160.4 135.3,161.3ZM132.6,162.4L132.6,160C132.6,159.4 132.5,158.9 132.3,158.4C132.1,157.9 131.9,157.5 131.7,157.2C131,156.4 129.9,156 128.6,156L125.3,156L125.3,169L128.6,169C129.9,169 130.9,168.6 131.7,167.8C132.1,167.3 132.4,166.7 132.5,165.9C132.6,165.1 132.6,163.9 132.6,162.4Z" style="fill:rgb(0,159,227);fill-rule:nonzero;"/>
        <path d="M152,165.4C152,166.6 151.7,167.7 151.2,168.6C150.6,169.5 149.9,170.3 148.9,170.8C147.9,171.3 146.8,171.6 145.6,171.6C144.4,171.6 143.3,171.3 142.3,170.8C141.3,170.3 140.6,169.5 140,168.6C139.4,167.7 139.2,166.6 139.2,165.4L139.2,153.5L141.9,153.5L141.9,165.3C141.9,166.1 142.1,166.8 142.4,167.4C142.7,168 143.1,168.4 143.7,168.8C144.3,169.1 144.9,169.3 145.7,169.3C146.5,169.3 147.1,169.1 147.7,168.8C148.3,168.5 148.7,168 149,167.4C149.3,166.8 149.5,166.1 149.5,165.3L149.5,153.5L152.2,153.5L152.2,165.4L152,165.4Z" style="fill:rgb(0,159,227);fill-rule:nonzero;"/>
        <path d="M167.7,166.3C167.7,167.1 167.5,167.8 167.2,168.5C166.9,169.2 166.4,169.7 165.8,170.2C165.2,170.7 164.5,171 163.7,171.2C162.9,171.4 162.1,171.6 161.1,171.6C159.7,171.6 158.5,171.4 157.5,171C156.5,170.6 155.6,170 154.7,169.2L156.5,167.4C156.9,167.8 157.3,168.1 157.8,168.4C158.3,168.7 158.8,168.8 159.3,169C159.8,169.1 160.4,169.2 161,169.2C162.2,169.2 163.1,169 163.7,168.5C164.3,168 164.7,167.3 164.7,166.5C164.7,165.7 164.5,165.1 164,164.6C163.8,164.4 163.5,164.2 163.3,164.1C163,164 162.6,163.9 162.1,163.8L160,163.5C158.5,163.3 157.4,162.8 156.6,162.1C155.7,161.3 155.3,160.1 155.3,158.7C155.3,157.7 155.5,156.7 156,155.9C156.5,155.1 157.2,154.5 158.1,154C159,153.6 160.1,153.3 161.3,153.3C162.5,153.3 163.6,153.5 164.4,153.8C165.2,154.1 166.1,154.6 166.9,155.4L165.1,157.1C164.7,156.7 164.4,156.5 163.9,156.3C163.5,156.1 163.1,156 162.6,155.9C162.2,155.8 161.7,155.8 161.1,155.8C160.4,155.8 159.8,155.9 159.3,156.2C158.8,156.4 158.4,156.8 158.2,157.2C157.9,157.6 157.8,158.1 157.8,158.6C157.8,159.3 158,159.9 158.5,160.3C158.7,160.5 159,160.7 159.4,160.8C159.8,161 160.1,161.1 160.5,161.1L162.5,161.4C163.3,161.5 164,161.7 164.5,161.9C165,162.1 165.5,162.4 165.8,162.7C167.2,163.5 167.7,164.7 167.7,166.3Z" style="fill:rgb(0,159,227);fill-rule:nonzero;"/>
        <path d="M182.4,155.9L177.5,155.9L177.5,171.4L174.8,171.4L174.8,155.9L169.8,155.9L169.8,153.4L182.4,153.4L182.4,155.9Z" style="fill:rgb(0,159,227);fill-rule:nonzero;"/>
        <path d="M198.6,171.5L195.4,171.5L191.6,163.9L188.2,163.9L188.2,171.5L185.4,171.5L185.4,153.5L192.4,153.5C193.5,153.5 194.5,153.7 195.3,154.2C196.2,154.6 196.8,155.3 197.3,156.1C197.8,156.9 198,157.8 198,158.8C198,160 197.7,161.1 197,161.9C196.3,162.7 195.5,163.3 194.4,163.6L198.6,171.5ZM195.3,158.8C195.3,157.9 195,157.2 194.5,156.7C193.9,156.2 193.2,155.9 192.3,155.9L188.3,155.9L188.3,161.5L192.3,161.5C193.2,161.5 194,161.2 194.5,160.7C195,160.2 195.3,159.6 195.3,158.8Z" style="fill:rgb(0,159,227);fill-rule:nonzero;"/>
        <path d="M213.3,153.5L207.9,164.1L207.9,171.5L205.1,171.5L205.1,164.1L199.7,153.5L202.7,153.5L206.5,161.4L210.3,153.5L213.3,153.5Z" style="fill:rgb(0,159,227);fill-rule:nonzero;"/>
        <path d="M235.1,171.5L232.2,171.5L231,167.9L223.9,167.9L222.7,171.5L219.8,171.5L226.4,153.5L228.6,153.5L235.1,171.5ZM230.2,165.5L227.5,157.5L224.7,165.5L230.2,165.5Z" style="fill:rgb(0,159,227);fill-rule:nonzero;"/>
        <path d="M250.3,158.9C250.3,159.9 250.1,160.9 249.6,161.7C249.1,162.5 248.5,163.2 247.6,163.7C246.7,164.2 245.7,164.4 244.6,164.4L240.5,164.4L240.5,171.5L237.7,171.5L237.7,153.5L244.5,153.5C245.3,153.5 246.1,153.6 246.9,153.9C247.6,154.2 248.3,154.6 248.8,155C249.3,155.5 249.7,156.1 249.9,156.7C250.1,157.4 250.3,158.1 250.3,158.9ZM247.5,158.9C247.5,158 247.2,157.2 246.6,156.7C246,156.2 245.2,155.9 244.3,155.9L240.4,155.9L240.4,161.9L244.3,161.9C245.3,161.9 246,161.6 246.6,161.1C247.2,160.6 247.5,159.9 247.5,158.9Z" style="fill:rgb(0,159,227);fill-rule:nonzero;"/>
        <path d="M266.2,158.9C266.2,159.9 266,160.9 265.5,161.7C265,162.5 264.4,163.2 263.5,163.7C262.6,164.2 261.6,164.4 260.5,164.4L256.4,164.4L256.4,171.5L253.6,171.5L253.6,153.5L260.4,153.5C261.2,153.5 262,153.6 262.8,153.9C263.5,154.2 264.2,154.6 264.7,155C265.2,155.5 265.6,156.1 265.8,156.7C266,157.4 266.2,158.1 266.2,158.9ZM263.4,158.9C263.4,158 263.1,157.2 262.5,156.7C261.9,156.2 261.1,155.9 260.2,155.9L256.3,155.9L256.3,161.9L260.2,161.9C261.2,161.9 261.9,161.6 262.5,161.1C263.1,160.6 263.4,159.9 263.4,158.9Z" style="fill:rgb(0,159,227);fill-rule:nonzero;"/>
        <path d="M282.6,171.5L279.4,171.5L275.6,163.9L272.2,163.9L272.2,171.5L269.4,171.5L269.4,153.5L276.4,153.5C277.5,153.5 278.5,153.7 279.3,154.2C280.2,154.6 280.8,155.3 281.3,156.1C281.8,156.9 282,157.8 282,158.8C282,160 281.7,161.1 281,161.9C280.3,162.7 279.5,163.3 278.4,163.6L282.6,171.5ZM279.3,158.8C279.3,157.9 279,157.2 278.5,156.7C277.9,156.2 277.2,155.9 276.3,155.9L272.3,155.9L272.3,161.5L276.3,161.5C277.2,161.5 278,161.2 278.5,160.7C279,160.2 279.3,159.6 279.3,158.8Z" style="fill:rgb(0,159,227);fill-rule:nonzero;"/>
        <path d="M298.3,162.5C298.3,163.9 298.3,165 298.2,165.8C298.1,166.6 298,167.3 297.7,167.9C297.5,168.6 297.1,169.2 296.5,169.7C295.2,171 293.6,171.6 291.7,171.6C289.8,171.6 288.2,171 287,169.7C286.4,169.1 286,168.5 285.8,167.9C285.6,167.3 285.4,166.5 285.3,165.8C285.2,165 285.2,163.9 285.2,162.5L285.2,159.9C285.2,159.3 285.3,158.7 285.4,158.1C285.5,157.5 285.7,157.1 285.9,156.6C286.1,156.1 286.5,155.7 286.9,155.2C288.2,153.9 289.8,153.3 291.6,153.3C293.5,153.3 295.1,153.9 296.4,155.2C297,155.8 297.3,156.4 297.6,157C297.8,157.7 298,158.4 298,159.1C298.3,160 298.3,161 298.3,162.5ZM295.6,162.5C295.6,160.7 295.5,159.4 295.4,158.7C295.3,158 295,157.4 294.5,156.9C294.2,156.6 293.8,156.3 293.3,156.1C292.8,155.9 292.3,155.8 291.8,155.8C291.3,155.8 290.8,155.9 290.3,156.1C289.8,156.3 289.4,156.6 289.1,156.9C288.7,157.4 288.4,158 288.2,158.7C288.1,159.4 288,160.7 288,162.5L288,164.8C288,165.4 288.1,165.9 288.2,166.3C288.3,166.7 288.4,167.1 288.5,167.3C288.6,167.5 288.8,167.8 289.1,168.1C289.4,168.4 289.8,168.7 290.3,168.9C290.8,169.1 291.3,169.2 291.8,169.2C292.9,169.2 293.8,168.8 294.5,168.1C294.8,167.8 295,167.4 295.2,167C295.4,166.6 295.5,166 295.5,165.3C295.6,164.6 295.6,163.6 295.6,162.5Z" style="fill:rgb(0,159,227);fill-rule:nonzero;"/>
        <path d="M314.1,153.5L308.1,171.5L306,171.5L300.1,153.5L302.9,153.5L307,166.6L311.1,153.5L314.1,153.5Z" style="fill:rgb(0,159,227);fill-rule:nonzero;"/>
        <path d="M328.1,171.5L316.6,171.5L316.6,153.5L328.1,153.5L328.1,156L319.3,156L319.3,161.2L326.8,161.2L326.8,163.6L319.3,163.6L319.3,169L328.1,169L328.1,171.5Z" style="fill:rgb(0,159,227);fill-rule:nonzero;"/>
        <path d="M344.7,161.3L344.7,163.2C344.7,164.2 344.7,165 344.6,165.7C344.5,166.4 344.4,167.1 344.1,167.8C343.8,168.5 343.4,169.1 342.9,169.7C341.8,170.8 340.2,171.4 338.2,171.4L331.9,171.4L331.9,153.4L338.2,153.4C340.2,153.4 341.7,154 342.9,155.1C343.4,155.6 343.8,156.2 344.1,156.9C344.4,157.6 344.5,158.2 344.6,158.9C344.7,159.6 344.7,160.4 344.7,161.3ZM341.9,162.4L341.9,160C341.9,159.4 341.8,158.9 341.6,158.4C341.5,157.9 341.2,157.5 341,157.2C340.3,156.4 339.2,156 337.9,156L334.6,156L334.6,169L337.9,169C339.2,169 340.2,168.6 341,167.8C341.4,167.3 341.7,166.7 341.8,165.9C341.9,165.1 341.9,163.9 341.9,162.4Z" style="fill:rgb(0,159,227);fill-rule:nonzero;"/>
        <path d="M367.4,158.9C367.4,159.9 367.2,160.9 366.7,161.7C366.2,162.5 365.6,163.2 364.7,163.7C363.8,164.2 362.8,164.4 361.7,164.4L357.6,164.4L357.6,171.5L354.8,171.5L354.8,153.5L361.6,153.5C362.4,153.5 363.2,153.6 364,153.9C364.7,154.2 365.4,154.6 365.9,155C366.4,155.5 366.8,156.1 367,156.7C367.2,157.4 367.4,158.1 367.4,158.9ZM364.6,158.9C364.6,158 364.3,157.2 363.7,156.7C363.1,156.2 362.3,155.9 361.4,155.9L357.5,155.9L357.5,161.9L361.4,161.9C362.4,161.9 363.1,161.6 363.7,161.1C364.3,160.6 364.6,159.9 364.6,158.9Z" style="fill:rgb(0,159,227);fill-rule:nonzero;"/>
        <path d="M382.2,171.5L370.7,171.5L370.7,153.5L373.5,153.5L373.5,169L382.2,169L382.2,171.5Z" style="fill:rgb(0,159,227);fill-rule:nonzero;"/>
        <path d="M397.8,165.4C397.8,166.6 397.5,167.7 397,168.6C396.4,169.5 395.7,170.3 394.7,170.8C393.7,171.3 392.6,171.6 391.4,171.6C390.2,171.6 389.1,171.3 388.1,170.8C387.1,170.3 386.4,169.5 385.8,168.6C385.2,167.7 385,166.6 385,165.4L385,153.5L387.7,153.5L387.7,165.3C387.7,166.1 387.9,166.8 388.2,167.4C388.5,168 388.9,168.4 389.5,168.8C390.1,169.2 390.7,169.3 391.5,169.3C392.2,169.3 392.9,169.1 393.5,168.8C394.1,168.5 394.5,168 394.8,167.4C395.1,166.8 395.3,166.1 395.3,165.3L395.3,153.5L398,153.5L398,165.4L397.8,165.4Z" style="fill:rgb(0,159,227);fill-rule:nonzero;"/>
        <path d="M418.2,171.5L415.3,171.5L415.3,159.5L411.2,168.3L409.2,168.3L405,159.5L405,171.5L402.2,171.5L402.2,153.5L405,153.5L410.3,164.7L415.4,153.5L418.2,153.5L418.2,171.5Z" style="fill:rgb(0,159,227);fill-rule:nonzero;"/>
        <path d="M435.5,166.4C435.5,167.5 435.3,168.4 434.8,169.2C434.3,170 433.7,170.5 432.9,170.9C432.1,171.3 431.1,171.5 430.1,171.5L422.8,171.5L422.8,153.5L429.8,153.5C430.9,153.5 431.8,153.7 432.7,154.1C433.6,154.5 434.2,155.1 434.6,155.8C435,156.5 435.3,157.4 435.3,158.4C435.3,159 435.2,159.6 435,160.1C434.8,160.6 434.5,161.1 434.1,161.4C433.7,161.8 433.3,162 432.9,162.2C433.7,162.5 434.3,163 434.8,163.7C435.3,164.4 435.5,165.3 435.5,166.4ZM432.5,158.5C432.5,158 432.4,157.5 432.1,157.1C431.9,156.7 431.5,156.4 431.1,156.2C430.7,156 430.1,155.9 429.6,155.9L425.6,155.9L425.6,161L429.6,161C430.5,161 431.2,160.8 431.7,160.3C432.2,159.9 432.5,159.3 432.5,158.5ZM432.8,166.3C432.8,165.7 432.7,165.3 432.5,164.9C432.3,164.5 431.9,164.2 431.5,163.9C431.1,163.7 430.5,163.6 429.9,163.6L425.6,163.6L425.6,169.1L429.9,169.1C430.5,169.1 431,169 431.5,168.7C431.9,168.5 432.3,168.1 432.5,167.7C432.7,167.3 432.8,166.8 432.8,166.3Z" style="fill:rgb(0,159,227);fill-rule:nonzero;"/>
        <path d="M451.1,171.5L439.6,171.5L439.6,153.5L451.1,153.5L451.1,156L442.3,156L442.3,161.2L449.8,161.2L449.8,163.6L442.3,163.6L442.3,169L451.1,169L451.1,171.5Z" style="fill:rgb(0,159,227);fill-rule:nonzero;"/>
        <path d="M467.9,171.5L464.7,171.5L460.9,163.9L457.5,163.9L457.5,171.5L454.7,171.5L454.7,153.5L461.7,153.5C462.8,153.5 463.8,153.7 464.6,154.2C465.5,154.6 466.1,155.3 466.6,156.1C467.1,156.9 467.3,157.8 467.3,158.8C467.3,160 467,161.1 466.3,161.9C465.6,162.7 464.8,163.3 463.7,163.6L467.9,171.5ZM464.6,158.8C464.6,157.9 464.3,157.2 463.8,156.7C463.2,156.2 462.5,155.9 461.6,155.9L457.6,155.9L457.6,161.5L461.6,161.5C462.5,161.5 463.3,161.2 463.8,160.7C464.3,160.2 464.6,159.6 464.6,158.8Z" style="fill:rgb(0,159,227);fill-rule:nonzero;"/>
        <path d="M482.6,166.3C482.6,167.1 482.4,167.8 482.1,168.5C481.8,169.2 481.3,169.7 480.7,170.2C480.1,170.7 479.4,171 478.6,171.2C477.8,171.4 477,171.6 476,171.6C474.6,171.6 473.4,171.4 472.4,171C471.4,170.6 470.5,170 469.6,169.2L471.4,167.4C471.8,167.8 472.2,168.1 472.7,168.4C473.2,168.7 473.7,168.8 474.2,169C474.7,169.1 475.3,169.2 475.9,169.2C477.1,169.2 478,169 478.6,168.5C479.2,168 479.6,167.3 479.6,166.5C479.6,165.7 479.4,165.1 478.9,164.6C478.7,164.4 478.4,164.2 478.2,164.1C477.9,164 477.5,163.9 477,163.8L474.9,163.5C473.4,163.3 472.3,162.8 471.5,162.1C470.6,161.3 470.2,160.1 470.2,158.7C470.2,157.7 470.4,156.7 470.9,155.9C471.4,155.1 472.1,154.5 473,154C473.9,153.6 475,153.3 476.2,153.3C477.4,153.3 478.5,153.5 479.3,153.8C480.1,154.1 481,154.6 481.8,155.4L480,157.1C479.6,156.7 479.3,156.5 478.8,156.3C478.4,156.1 478,156 477.5,155.9C477.1,155.8 476.6,155.8 476,155.8C475.3,155.8 474.7,155.9 474.2,156.2C473.7,156.4 473.3,156.8 473.1,157.2C472.8,157.6 472.7,158.1 472.7,158.6C472.7,159.3 472.9,159.9 473.4,160.3C473.6,160.5 473.9,160.7 474.3,160.8C474.7,161 475,161.1 475.4,161.1L477.4,161.4C478.2,161.5 478.9,161.7 479.4,161.9C479.9,162.1 480.4,162.4 480.7,162.7C482.1,163.5 482.6,164.7 482.6,166.3Z" style="fill:rgb(0,159,227);fill-rule:nonzero;"/>
        <path d="M488.7,156.1L485.9,158.4L485.9,153.4L488.7,153.4L488.7,156.1Z" style="fill:rgb(0,159,227);fill-rule:nonzero;"/>
        <path d="M506.6,166.3C506.6,167.1 506.4,167.8 506.1,168.5C505.8,169.2 505.3,169.7 504.7,170.2C504.1,170.7 503.4,171 502.6,171.2C501.8,171.4 501,171.6 500,171.6C498.6,171.6 497.4,171.4 496.4,171C495.4,170.6 494.5,170 493.6,169.2L495.4,167.4C495.8,167.8 496.2,168.1 496.7,168.4C497.2,168.7 497.7,168.8 498.2,169C498.7,169.1 499.3,169.2 499.9,169.2C501.1,169.2 502,169 502.6,168.5C503.3,168 503.6,167.3 503.6,166.5C503.6,165.7 503.4,165.1 502.9,164.6C502.7,164.4 502.4,164.2 502.2,164.1C501.9,164 501.5,163.9 501,163.8L498.9,163.5C497.4,163.3 496.3,162.8 495.5,162.1C494.6,161.3 494.2,160.1 494.2,158.7C494.2,157.7 494.4,156.7 494.9,155.9C495.4,155.1 496.1,154.5 497,154C497.9,153.6 499,153.3 500.2,153.3C501.4,153.3 502.5,153.5 503.3,153.8C504.1,154.1 505,154.6 505.8,155.4L504,157.1C503.6,156.7 503.3,156.5 502.8,156.3C502.4,156.1 502,156 501.5,155.9C501.1,155.8 500.6,155.8 500,155.8C499.3,155.8 498.7,155.9 498.2,156.2C497.7,156.4 497.3,156.8 497.1,157.2C496.8,157.6 496.7,158.1 496.7,158.6C496.7,159.3 496.9,159.9 497.4,160.3C497.6,160.5 497.9,160.7 498.3,160.8C498.7,161 499,161.1 499.4,161.1L501.4,161.4C502.2,161.5 502.9,161.7 503.4,161.9C503.9,162.1 504.4,162.4 504.7,162.7C506.1,163.5 506.6,164.7 506.6,166.3Z" style="fill:rgb(0,159,227);fill-rule:nonzero;"/>
        <path d="M522.5,166.1C522.4,167 522.1,167.8 521.7,168.5C521.3,169.2 520.8,169.8 520.3,170.2C519.7,170.7 519.1,171 518.4,171.3C517.7,171.5 516.9,171.7 516.1,171.7C515.5,171.7 514.9,171.6 514.3,171.5C513.7,171.4 513.2,171.1 512.7,170.8C512.2,170.5 511.7,170.2 511.3,169.8C510.7,169.2 510.3,168.6 510.1,168C509.9,167.4 509.7,166.6 509.6,165.9C509.5,165.1 509.5,164 509.5,162.6L509.5,160C509.5,159.4 509.6,158.8 509.7,158.2C509.8,157.7 510,157.2 510.2,156.7C510.4,156.2 510.8,155.8 511.2,155.3C511.8,154.7 512.5,154.2 513.3,153.9C514.1,153.6 515,153.4 515.9,153.4C517.6,153.4 519,153.9 520.1,154.8C521.2,155.8 522,157.1 522.3,158.9L519.5,158.9C519.3,158 518.9,157.2 518.2,156.7C517.6,156.1 516.8,155.9 515.8,155.9C515.3,155.9 514.8,156 514.3,156.2C513.8,156.4 513.4,156.7 513.1,157C512.9,157.3 512.7,157.5 512.5,157.8C512.4,158.1 512.3,158.4 512.2,158.9C512.1,159.3 512.1,159.8 512,160.4L512,164.9C512,165.4 512.1,165.9 512.2,166.4C512.3,166.8 512.4,167.2 512.5,167.5C512.6,167.8 512.8,168 513.1,168.3C513.4,168.6 513.8,168.9 514.3,169.1C514.8,169.3 515.3,169.4 515.8,169.4C516.5,169.4 517,169.3 517.5,169C518,168.7 518.4,168.4 518.7,167.9C519,167.4 519.3,166.9 519.4,166.3L522.5,166.3L522.5,166.1Z" style="fill:rgb(0,159,227);fill-rule:nonzero;"/>
        <path d="M538.9,171.5L536.2,171.5L536.2,163.6L528.9,163.6L528.9,171.5L526.1,171.5L526.1,153.5L528.9,153.5L528.9,161.2L536.2,161.2L536.2,153.5L538.9,153.5L538.9,171.5Z" style="fill:rgb(0,159,227);fill-rule:nonzero;"/>
        <path d="M555.1,171.5L543.6,171.5L543.6,153.5L555.1,153.5L555.1,156L546.3,156L546.3,161.2L553.8,161.2L553.8,163.6L546.3,163.6L546.3,169L555.1,169L555.1,171.5Z" style="fill:rgb(0,159,227);fill-rule:nonzero;"/>
        <path d="M574.9,171.5L572,171.5L572,159.5L567.9,168.3L565.9,168.3L561.7,159.5L561.7,171.5L558.9,171.5L558.9,153.5L561.7,153.5L567,164.7L572.1,153.5L574.9,153.5L574.9,171.5Z" style="fill:rgb(0,159,227);fill-rule:nonzero;"/>
        <path d="M590.9,171.5L579.4,171.5L579.4,153.5L590.9,153.5L590.9,156L582.1,156L582.1,161.2L589.6,161.2L589.6,163.6L582.1,163.6L582.1,169L590.9,169L590.9,171.5Z" style="fill:rgb(0,159,227);fill-rule:nonzero;"/>
    </g>
    <path d="M44.7,91L45.2,91.2C37,84.3 32.3,74.1 32.3,63.3C32.3,53.2 36.8,44.9 43.4,36.3C52.9,23.9 64.2,8.7 67.7,3.9C39.3,4.4 14.6,23.5 7,50.9C13.1,69.1 26.9,83.8 44.7,91Z" style="fill:rgb(0,46,82);fill-rule:nonzero;"/>
    <path d="M131.1,52.5C125.4,29.7 107.7,11.8 85,5.9C80.1,4.6 75,4 70,3.9C71,5.3 72.7,7.6 74.8,10.4C79.9,17.3 87.6,27.5 94.3,36.3C97.3,40.1 99.9,44.2 102,48.5C115.7,56.6 126,69.5 130.9,84.7C133.7,74.2 133.8,63.1 131.1,52.5Z" style="fill:rgb(108,199,43);fill-rule:nonzero;"/>
    <path d="M102,48.5C104.2,53.1 105.4,58.2 105.4,63.3C105.4,74 100.7,84.2 92.5,91.1C92.4,91.3 92.4,91.4 92.3,91.6C84.9,109.8 69.8,123.7 51.1,129.6C85.1,139.4 120.7,119.8 130.5,85.7C130.6,85.3 130.7,84.9 130.8,84.6C125.9,69.5 115.7,56.7 102,48.5Z" style="fill:rgb(0,159,227);fill-rule:nonzero;"/>
    <path d="M92.3,91.7C92.4,91.5 92.4,91.4 92.5,91.2C78.9,102.8 58.9,102.8 45.2,91.3L44.7,91C26.9,83.8 13.1,69.1 7,50.8C-2.4,84.7 17.3,119.9 51.1,129.7C69.8,123.8 84.9,109.9 92.3,91.7Z" style="fill:rgb(0,92,185);fill-rule:nonzero;"/>
    <path d="M284.3,8.4L270.9,8.4C269.8,8.4 268.9,9.1 268.7,10.2L247.6,97L223.9,10.1C223.6,9.1 222.7,8.4 221.7,8.4L210.4,8.4C209.4,8.4 208.4,9.1 208.2,10.1L184.5,97L163.4,10.2C163.1,9.2 162.2,8.4 161.2,8.4L147.8,8.4C146.5,8.4 145.5,9.4 145.5,10.6C145.5,10.8 145.5,11 145.6,11.2L175.9,129.7C176.2,130.7 177.1,131.4 178.1,131.4L189.9,131.4C190.9,131.4 191.8,130.7 192.1,129.7L216.1,42.8L240.2,129.6C240.5,130.6 241.4,131.3 242.4,131.3L254,131.3C255.1,131.3 256,130.6 256.2,129.6L286.4,11.2C286.6,10.5 286.4,9.8 286,9.2C285.6,8.7 285,8.4 284.3,8.4Z" style="fill:rgb(0,46,82);fill-rule:nonzero;"/>
    <path d="M294.1,8.4L306.7,8.4C308,8.4 309,9.4 309,10.7L309,129.1C309,130.4 308,131.4 306.7,131.4L294.1,131.4C292.8,131.4 291.8,130.4 291.8,129.1L291.8,10.7C291.8,9.4 292.8,8.4 294.1,8.4Z" style="fill:rgb(0,46,82);fill-rule:nonzero;"/>
    <path d="M372.1,9.9C371.8,9 370.9,8.4 369.9,8.4L359.3,8.4C358.3,8.4 357.5,9 357.1,9.9L313.6,128.3C313.2,129.5 313.8,130.8 315,131.3C315.3,131.4 315.5,131.4 315.8,131.4L329.3,131.4C330.3,131.4 331.1,130.8 331.5,129.9L340.7,104.5L388.8,104.5L397.6,129.9C397.9,130.8 398.8,131.5 399.8,131.5L413.4,131.4C414.7,131.4 415.7,130.4 415.7,129.1C415.7,128.8 415.7,128.6 415.6,128.3L372.1,9.9ZM383.5,88.9L346,88.9L364.9,35.9L383.5,88.9Z" style="fill:rgb(0,46,82);fill-rule:nonzero;"/>
    <path d="M494.5,18.4C487.4,11.8 477.9,8.4 466.4,8.4L422.4,8.4C421.1,8.4 420.1,9.4 420.1,10.7L420.1,129.1C420.1,130.4 421.1,131.4 422.4,131.4L435,131.4C436.3,131.4 437.3,130.4 437.3,129.1L437.3,82.6L466.4,82.6C477.9,82.6 487.4,79.2 494.5,72.4C501.6,65.6 505.3,56.5 505.3,45.4C505.3,34.3 501.7,25 494.5,18.4ZM437.4,24.3L465.3,24.3C472.3,24.3 478,26.1 482.1,29.7C486.2,33.3 488.1,38.4 488.1,45.4C488.1,52.4 486.2,57.7 482.2,61.3C478.2,64.9 472.5,66.7 465.4,66.7L437.5,66.7L437.5,24.3L437.4,24.3Z" style="fill:rgb(0,46,82);fill-rule:nonzero;"/>
    <path d="M583,73.8C578.2,69.7 574.1,67 570.6,65.6C566.3,64 561.7,63 557.1,62.4L544.2,60.4C541.3,59.9 538.4,59.1 535.7,57.9C532.9,56.7 530.3,55.1 528,53.1C525.9,51.3 524.8,47.7 524.8,42.5C524.8,36.4 526.7,31.7 530.6,28.2C534.5,24.7 540.2,22.9 547.4,22.9C552.4,22.8 557.4,23.6 562.1,25.3C566.3,27 570.1,29.4 573.4,32.4C574.3,33.2 575.7,33.2 576.6,32.3L584.7,24.2C585.1,23.8 585.4,23.1 585.4,22.5C585.4,21.9 585.1,21.3 584.6,20.8C579.8,16.3 574.1,12.8 568,10.4C561.5,8.2 554.7,7.1 547.8,7.3C535.6,7.3 525.8,10.6 518.6,17C511.4,23.4 507.6,32.3 507.6,43C507.6,53.1 510.6,60.8 516.7,66.2C522.5,71.3 530.5,74.8 540.3,76.4L554.1,78.6C557.2,79 560.3,79.7 563.3,80.6C565.8,81.6 568,83.1 569.9,85C572.1,87 573.3,90.9 573.3,96.7C573.3,102.9 571.1,107.5 566.7,111C562.3,114.5 555.8,116.3 547.7,116.3C542,116.4 536.2,115.5 530.9,113.6C525.7,111.4 521,108.2 517.2,104.1C516.8,103.7 516.2,103.4 515.6,103.4C515,103.4 514.4,103.6 514,104.1L505.3,112.7C504.4,113.6 504.4,115 505.3,115.9C511.3,121.9 517.5,126.1 523.9,128.6C530.3,131.1 538.2,132.2 547.5,132.2C560.5,132.2 571,129 578.8,122.6C586.6,116.2 590.7,107.3 590.7,96.3C590.7,85.7 588.1,78.1 583,73.8Z" style="fill:rgb(0,46,82);fill-rule:nonzero;"/>
    <rect x="0" y="0" width="597" height="180.6" style="fill:none;"/>
</svg>
